<svg width="103" height="103" viewBox="0 0 103 103" fill="none" xmlns="http://www.w3.org/2000/svg">
<circle cx="51.5" cy="51.5" r="51.5" fill="#FFEEE9"/>
<path d="M31.9993 50.0208L40.2493 57.5833L37.9577 68.125C37.7285 69.5 38.1868 70.875 39.3327 71.5625C39.791 72.0208 40.4785 72.25 41.166 72.25C41.6243 72.25 42.0827 72.25 42.541 72.0208C42.541 72.0208 42.7702 72.0208 42.7702 71.7917L52.166 66.5208L61.5618 71.7917C61.5618 71.7917 61.791 71.7917 61.791 72.0208C62.9368 72.4792 64.3118 72.4792 65.2285 71.7917C66.3743 71.1042 66.8327 69.7292 66.6035 68.3542L64.3118 57.8125C65.2285 57.125 66.6035 55.75 67.9785 54.375L72.3327 50.4792L72.5618 50.25C73.4785 49.3333 73.7077 47.9583 73.2493 46.8125C72.791 45.6667 71.8743 44.75 70.4993 44.5208H70.2702L59.4993 43.375L55.1452 33.5208C55.1452 33.5208 55.1452 33.2917 54.916 33.2917C54.6868 31.6875 53.541 31 52.3952 31C51.2493 31 50.1035 31.6875 49.416 32.8333C49.416 32.8333 49.416 33.0625 49.1868 33.0625L44.8327 42.9167L34.0618 44.0625H33.8327C32.6868 44.2917 31.541 45.2083 31.0827 46.3542C30.8535 47.7292 31.0827 49.1042 31.9993 50.0208Z" fill="#EA5C2B"/>
</svg>
