<svg width="103" height="103" viewBox="0 0 103 103" fill="none" xmlns="http://www.w3.org/2000/svg">
<circle cx="51.5" cy="51.5" r="51.5" fill="#FDF7DF"/>
<path d="M30.9993 50.0208L39.2493 57.5833L36.9577 68.125C36.7285 69.5 37.1868 70.875 38.3327 71.5625C38.791 72.0208 39.4785 72.25 40.166 72.25C40.6243 72.25 41.0827 72.25 41.541 72.0208C41.541 72.0208 41.7702 72.0208 41.7702 71.7917L51.166 66.5208L60.5618 71.7917C60.5618 71.7917 60.791 71.7917 60.791 72.0208C61.9368 72.4792 63.3118 72.4792 64.2285 71.7917C65.3743 71.1042 65.8327 69.7292 65.6035 68.3542L63.3118 57.8125C64.2285 57.125 65.6035 55.75 66.9785 54.375L71.3327 50.4792L71.5618 50.25C72.4785 49.3333 72.7077 47.9583 72.2493 46.8125C71.791 45.6667 70.8743 44.75 69.4993 44.5208H69.2702L58.4993 43.375L54.1452 33.5208C54.1452 33.5208 54.1452 33.2917 53.916 33.2917C53.6868 31.6875 52.541 31 51.3952 31C50.2493 31 49.1035 31.6875 48.416 32.8333C48.416 32.8333 48.416 33.0625 48.1868 33.0625L43.8327 42.9167L33.0618 44.0625H32.8327C31.6868 44.2917 30.541 45.2083 30.0827 46.3542C29.8535 47.7292 30.0827 49.1042 30.9993 50.0208Z" fill="#E4A200"/>
</svg>
