<svg width="163" height="163" viewBox="0 0 163 163" fill="none" xmlns="http://www.w3.org/2000/svg">
<circle cx="81.5" cy="81.5" r="81.5" fill="#FFEEE9"/>
<path d="M42.4318 108.223H54.59V115.517C54.59 116.86 55.6787 117.949 57.0216 117.949H120.568C121.911 117.949 123 116.86 123 115.517V52.2949C123 50.952 121.911 49.8633 120.568 49.8633H108.41V47.4316C108.41 46.0887 107.321 45 105.979 45C104.636 45 103.547 46.0887 103.547 47.4316V49.8633H91.2266V47.4316C91.2266 46.0887 90.1379 45 88.795 45C87.4521 45 86.3634 46.0887 86.3634 47.4316V49.8633H74.2052V47.4316C74.2052 46.0887 73.1165 45 71.7736 45C70.4307 45 69.3419 46.0887 69.3419 47.4316V49.8633H57.0216C55.6787 49.8633 54.59 50.952 54.59 52.2949V66.8847C54.59 84.8059 47.1419 98.5926 40.8751 103.923C40.0886 104.578 39.7969 105.656 40.1453 106.619C40.494 107.581 41.408 108.223 42.4318 108.223V108.223ZM118.137 113.086H59.4533V108.223H105.979C106.547 108.223 107.098 108.023 107.535 107.659C110.458 105.224 114.986 99.4274 118.137 92.0032V113.086ZM59.4533 54.7265H69.3419V57.1582C69.3419 58.5011 70.4307 59.5898 71.7736 59.5898C73.1165 59.5898 74.2052 58.5011 74.2052 57.1582V54.7265H86.3634V57.1582C86.3634 58.5011 87.4521 59.5898 88.795 59.5898C90.1379 59.5898 91.2266 58.5011 91.2266 57.1582V54.7265H103.547V57.1582C103.547 58.5011 104.636 59.5898 105.979 59.5898C107.321 59.5898 108.41 58.5011 108.41 57.1582V54.7265H118.137V64.4531H59.4533V54.7265ZM59.4116 69.3147H118.094C117.546 84.7402 111.625 96.877 105.025 103.359H47.9628C55.4414 93.8303 59.0104 81.423 59.4116 69.3147V69.3147Z" fill="#EA5C2B"/>
</svg>
