<svg width="163" height="163" viewBox="0 0 163 163" fill="none" xmlns="http://www.w3.org/2000/svg">
<circle cx="81.5" cy="81.5" r="81.5" fill="#FDF7DF"/>
<path d="M86.2028 90.5405C91.3026 90.5405 95.4496 86.3934 95.4496 81.2937C95.4496 76.1939 91.3026 72.0469 86.2028 72.0469C81.1031 72.0469 76.9561 76.1939 76.9561 81.2937C76.9561 86.3934 81.1029 90.5405 86.2028 90.5405ZM86.2028 75.7283C89.2779 75.7283 91.7683 78.2294 91.7683 81.2937C91.7683 84.3687 89.2671 86.8591 86.2028 86.8591C83.1278 86.8591 80.6374 84.3579 80.6374 81.2937C80.6374 78.2294 83.1386 75.7283 86.2028 75.7283Z" fill="#E4A200"/>
<path d="M92.2337 93.334H80.1502C73.4045 93.334 67.915 98.8127 67.915 105.537V116.862C67.915 118.692 69.3442 120.121 71.1741 120.121H101.177C103.007 120.121 104.436 118.692 104.436 116.862V105.547C104.447 98.8127 98.9684 93.334 92.2337 93.334ZM100.755 116.451H97.3658V105.591C97.3658 104.757 96.6836 104.075 95.85 104.075C95.0163 104.075 94.3341 104.757 94.3341 105.591V116.451H77.9737V105.591C77.9737 104.757 77.2915 104.075 76.4578 104.075C75.6242 104.075 74.942 104.757 74.942 105.591V116.451H71.607V105.548C71.607 100.848 75.44 97.0154 80.15 97.0154H92.2335C96.9327 97.0154 100.755 100.838 100.755 105.537V116.451H100.755Z" fill="#E4A200"/>
<path d="M97.7663 60.4936C102.866 60.4936 107.013 56.3465 107.013 51.2468C107.013 46.147 102.866 42 97.7663 42C92.6666 42 88.5195 46.147 88.5195 51.2468C88.5195 56.3465 92.6666 60.4936 97.7663 60.4936ZM97.7663 45.6814C100.841 45.6814 103.332 48.1825 103.332 51.2468C103.332 54.3111 100.831 56.8122 97.7663 56.8122C94.6912 56.8122 92.2009 54.3111 92.2009 51.2468C92.2009 48.1825 94.6912 45.6814 97.7663 45.6814Z" fill="#E4A200"/>
<path d="M112.416 66.8603C110.11 64.5539 107.046 63.2764 103.787 63.2764H91.5081C87.6536 63.2764 83.9938 65.1386 81.7092 68.2571C81.1029 69.0799 81.2869 70.2276 82.0989 70.8341C82.4238 71.0722 82.8135 71.1915 83.1817 71.1915C83.7446 71.1915 84.3078 70.9316 84.665 70.4443C86.2566 68.268 88.812 66.9687 91.4971 66.9687H103.797C106.071 66.9687 108.204 67.8565 109.817 69.4699C111.431 71.0832 112.318 73.2269 112.318 75.49V86.4042H108.929V75.5441C108.929 74.7105 108.247 74.0282 107.413 74.0282C106.58 74.0282 105.898 74.7105 105.898 75.5441V86.4042H96.4019C95.3841 86.4042 94.5612 87.2271 94.5612 88.2449C94.5612 89.2627 95.3841 90.0856 96.4019 90.0856H112.73C114.56 90.0856 115.989 88.6564 115.989 86.8265V75.4902C116 75.4902 116 75.4902 116 75.4902C116 72.2307 114.733 69.1666 112.416 66.8603Z" fill="#E4A200"/>
<path d="M64.278 72.8373C69.3778 72.8373 73.5248 68.6903 73.5248 63.5905C73.5248 58.4908 69.3778 54.3438 64.278 54.3438C59.1783 54.3438 55.0312 58.4908 55.0312 63.5905C55.0312 68.6903 59.1781 72.8373 64.278 72.8373ZM64.278 58.0143C67.3531 58.0143 69.8435 60.5155 69.8435 63.5798C69.8435 66.6548 67.3423 69.1452 64.278 69.1452C61.203 69.1452 58.7126 66.644 58.7126 63.5798C58.7126 60.5155 61.2138 58.0143 64.278 58.0143Z" fill="#E4A200"/>
<path d="M65.4461 98.7477H56.091V87.8768C56.091 87.0432 55.4088 86.3609 54.5751 86.3609C53.7415 86.3609 53.0593 87.0432 53.0593 87.8768V98.7477H49.6704V87.8335C49.6704 83.1342 53.5034 79.3122 58.2242 79.3122L70.3836 79.323C71.4772 79.323 72.495 79.518 73.5128 79.9293C73.7402 80.016 73.9675 80.0592 74.2058 80.0592C74.9312 80.0592 75.6242 79.6261 75.9167 78.9115C76.2956 77.9696 75.841 76.8976 74.8988 76.5186C73.4371 75.9339 71.9646 75.6416 70.3946 75.6416L58.2352 75.6309C51.4895 75.6309 46 81.1096 46 87.8335V99.159C46 100.989 47.4292 102.418 49.2591 102.418H65.4463C66.4641 102.418 67.287 101.595 67.287 100.577C67.2868 99.5706 66.4639 98.7477 65.4461 98.7477Z" fill="#E4A200"/>
</svg>
