<svg width="163" height="163" viewBox="0 0 163 163" fill="none" xmlns="http://www.w3.org/2000/svg">
<circle cx="81.5" cy="81.5" r="81.5" fill="#EAF5D9"/>
<path d="M107.341 92.0952C110.341 88.2993 111.981 83.6072 112 78.769C112 74.4483 110.719 70.2245 108.318 66.6319C105.918 63.0394 102.506 60.2393 98.5139 58.5858C94.5221 56.9323 90.1295 56.4997 85.8918 57.3426C81.6541 58.1856 77.7615 60.2662 74.7062 63.3214C71.651 66.3767 69.5703 70.2693 68.7274 74.507C67.8845 78.7448 68.3171 83.1373 69.9706 87.1292C71.6241 91.121 74.4241 94.5329 78.0167 96.9334C81.6093 99.3339 85.833 100.615 90.1538 100.615C94.9919 100.596 99.6841 98.9558 103.48 95.9559L118.263 110.738C118.778 111.236 119.468 111.511 120.184 111.505C120.9 111.498 121.584 111.211 122.091 110.705C122.597 110.199 122.884 109.514 122.89 108.798C122.897 108.082 122.621 107.392 122.124 106.877L107.341 92.0952ZM73.7692 78.769C73.7692 75.5284 74.7301 72.3606 76.5305 69.6662C78.3308 66.9718 80.8898 64.8717 83.8837 63.6316C86.8776 62.3915 90.172 62.067 93.3503 62.6992C96.5286 63.3314 99.448 64.8919 101.739 67.1833C104.031 69.4748 105.591 72.3942 106.224 75.5725C106.856 78.7508 106.531 82.0452 105.291 85.0391C104.051 88.033 101.951 90.592 99.2566 92.3923C96.5622 94.1927 93.3944 95.1536 90.1538 95.1536C85.8098 95.1489 81.6451 93.4211 78.5734 90.3494C75.5017 87.2777 73.7739 83.113 73.7692 78.769V78.769Z" fill="#00A551"/>
<path d="M120.192 46H43.7308C43.0065 46 42.3119 46.2877 41.7998 46.7998C41.2877 47.3119 41 48.0065 41 48.7308C41 49.455 41.2877 50.1496 41.7998 50.6617C42.3119 51.1738 43.0065 51.4615 43.7308 51.4615H120.192C120.917 51.4615 121.611 51.1738 122.123 50.6617C122.635 50.1496 122.923 49.455 122.923 48.7308C122.923 48.0065 122.635 47.3119 122.123 46.7998C121.611 46.2877 120.917 46 120.192 46V46Z" fill="#00A551"/>
<path d="M43.7308 84.2311H60.1154C60.8396 84.2311 61.5342 83.9434 62.0463 83.4312C62.5584 82.9191 62.8462 82.2245 62.8462 81.5003C62.8462 80.7761 62.5584 80.0815 62.0463 79.5694C61.5342 79.0572 60.8396 78.7695 60.1154 78.7695H43.7308C43.0065 78.7695 42.3119 79.0572 41.7998 79.5694C41.2877 80.0815 41 80.7761 41 81.5003C41 82.2245 41.2877 82.9191 41.7998 83.4312C42.3119 83.9434 43.0065 84.2311 43.7308 84.2311V84.2311Z" fill="#00A551"/>
<path d="M43.7308 100.616H60.1154C60.8396 100.616 61.5342 100.328 62.0463 99.816C62.5584 99.3039 62.8462 98.6093 62.8462 97.8851C62.8462 97.1608 62.5584 96.4662 62.0463 95.9541C61.5342 95.442 60.8396 95.1543 60.1154 95.1543H43.7308C43.0065 95.1543 42.3119 95.442 41.7998 95.9541C41.2877 96.4662 41 97.1608 41 97.8851C41 98.6093 41.2877 99.3039 41.7998 99.816C42.3119 100.328 43.0065 100.616 43.7308 100.616V100.616Z" fill="#00A551"/>
<path d="M43.7308 117H103.808C104.532 117 105.227 116.712 105.739 116.2C106.251 115.688 106.538 114.993 106.538 114.269C106.538 113.545 106.251 112.85 105.739 112.338C105.227 111.826 104.532 111.538 103.808 111.538H43.7308C43.0065 111.538 42.3119 111.826 41.7998 112.338C41.2877 112.85 41 113.545 41 114.269C41 114.993 41.2877 115.688 41.7998 116.2C42.3119 116.712 43.0065 117 43.7308 117V117Z" fill="#00A551"/>
<path d="M43.7308 67.8463H60.1154C60.8396 67.8463 61.5342 67.5586 62.0463 67.0465C62.5584 66.5344 62.8462 65.8398 62.8462 65.1155C62.8462 64.3913 62.5584 63.6967 62.0463 63.1846C61.5342 62.6725 60.8396 62.3848 60.1154 62.3848H43.7308C43.0065 62.3848 42.3119 62.6725 41.7998 63.1846C41.2877 63.6967 41 64.3913 41 65.1155C41 65.8398 41.2877 66.5344 41.7998 67.0465C42.3119 67.5586 43.0065 67.8463 43.7308 67.8463V67.8463Z" fill="#00A551"/>
</svg>
